<svg preserveAspectRatio="none" width="100%" height="100%" overflow="visible" style="display: block;" viewBox="0 0 87.0021 112" fill="none" xmlns="http://www.w3.org/2000/svg">
<g id="C7uV7z">
<g id="Group">
<path id="Vector" d="M87 91.2589L86.9277 106.181C86.9128 109.486 83.8721 112 80.5401 112L6.21322 111.991C2.86421 111.991 0.00637908 109.245 0.00637908 105.995L0 91.5418C0 89.123 1.6862 86.9027 3.96779 86.1112L21.4167 80.0665C24.1788 79.2308 27.0473 80.0665 28.7399 82.4325L43.4777 103.057L58.0496 82.6414C59.7613 80.1256 62.7893 79.1273 65.6811 80.1341L82.2795 85.8094C84.7886 86.6663 86.613 88.4793 87.0021 91.2589H87Z" fill="var(--fill-0, #1B76FF)"/>
<path id="Vector_2" d="M35.6335 84.178C34.0707 83.9183 33.1925 82.6077 33.4136 81.202C33.6241 79.8534 34.951 78.8403 36.4309 79.1189C37.913 79.3996 38.8061 80.6343 38.6147 82.0568C38.4382 83.3696 37.1603 84.4333 35.6357 84.178H35.6335Z" fill="var(--fill-0, #1B76FF)"/>
<path id="Vector_3" d="M51.2453 84.1273C49.8695 84.3067 48.6979 83.4182 48.4172 82.3164C48.0812 80.9889 48.7149 79.7014 50.012 79.2012C51.5111 78.6229 53.1058 79.4418 53.4843 80.8749C53.8841 82.3924 52.9868 83.8994 51.2474 84.1273H51.2453Z" fill="var(--fill-0, #1B76FF)"/>
<path id="Vector_4" d="M44.1347 85.3937C42.4591 85.7482 41.0685 84.7605 40.8729 83.2451C40.6794 81.7529 41.8489 80.3662 43.4968 80.3726C44.8428 80.3789 45.9485 81.3287 46.0995 82.538C46.259 83.8255 45.5679 85.0918 44.1368 85.3937H44.1347Z" fill="var(--fill-0, #1B76FF)"/>
<path id="Vector_5" d="M29.7754 74.4292C31.2958 74.1042 32.5397 75.1003 32.8459 76.43C33.1563 77.7808 32.2611 79.1864 30.8896 79.4819C29.5245 79.7753 28.2062 78.9353 27.8383 77.6267C27.4598 76.2823 28.1806 74.7732 29.7754 74.4313V74.4292Z" fill="var(--fill-0, #1B76FF)"/>
<path id="Vector_6" d="M55.5979 79.1738C54.1924 78.6398 53.6842 77.1814 54.1307 75.8834C54.5305 74.7226 55.8637 73.9058 57.2203 74.2751C58.6811 74.6719 59.3956 76.1219 58.9937 77.5064C58.5918 78.8909 57.1523 79.7647 55.6001 79.1738H55.5979Z" fill="var(--fill-0, #1B76FF)"/>
</g>
<path id="Vector_7" d="M58.6195 47.2576L26.4987 46.8925C22.9753 56.542 29.0843 63.9058 35.3614 70.7061C38.0193 74.1358 30.7068 82.3671 26.5837 80.6913C25.2399 79.9737 25.6737 77.0758 24.7678 76.1978C21.0807 72.6183 15.8286 74.9505 13.7342 72.0949C11.291 68.7623 12.4732 64.6656 11.9863 60.8413C11.2208 54.8409 -0.910082 56.905 1.26944 48.5514C2.12636 45.2694 4.0337 42.4602 6.24512 39.8811C9.98964 35.5164 2.23055 34.2501 3.86572 25.7487C4.30375 23.4714 6.94256 20.8775 9.86843 19.4233C19.9495 14.4212 11.6865 9.15741 17.03 6.12029C21.1764 3.76277 24.2341 7.34231 27.4215 6.45798C28.8845 6.05275 29.2438 4.34318 30.0263 2.5323C31.2426 -0.27899 35.8355 -0.703216 38.249 1.02957C45.8294 6.4812 48.7064 -3.58205 55.9807 4.87293C64.5286 14.8095 67.093 6.84844 72.2048 12.7032C76.0599 17.1185 72.781 21.4536 74.3609 24.2903C75.7452 26.7765 80.9356 25.4701 82.9131 28.7752C85.6179 33.294 80.6252 39.1825 83.8806 44.5223C86.596 48.9756 85.5115 54.1613 80.7932 56.6497C73.8123 60.3305 80.9314 66.7657 76.8551 72.2595C72.0028 78.7981 64.7604 68.298 59.0256 80.6047C55.1259 82.0779 47.5199 73.9311 50.7158 69.864C55.6915 63.528 61.3774 57.7303 58.6174 47.2576H58.6195Z" fill="var(--fill-0, #1B76FF)"/>
</g>
</svg>
