<svg width="39" height="42" viewBox="0 0 39 42" fill="none" xmlns="http://www.w3.org/2000/svg">
<g clip-path="url(#clip0_53_351)">
<path d="M12.4142 41.8741C10.357 42.4269 8.16307 41.1407 7.6433 39.1868L0.114944 10.9953C-0.41029 9.02497 0.908267 6.91238 2.80677 6.40339L11.3418 4.09925C11.2871 1.82794 13.0488 -0.0219439 15.3358 -5.18135e-05H32.8381C35.8856 -5.18135e-05 38.7963 2.44639 38.7963 5.61527L38.8072 33.1829C38.8072 35.0164 37.0838 36.7021 35.3822 36.7185L31.5032 36.7623L12.4142 41.8686V41.8741ZM36.843 10.9405C36.843 10.0813 36.2084 9.39166 35.4917 9.15632C34.8844 8.95929 33.9761 9.10159 33.3579 9.03592C31.4703 8.83889 30.0041 7.38306 29.818 5.48939C29.7743 5.03513 29.7743 4.6356 29.8016 4.15398C29.8618 3.08674 29.074 2.00855 27.9086 2.00855H15.292C14.1868 2.00855 13.3443 2.92802 13.3443 4.0062V32.8491C13.3498 33.8725 14.2634 34.7482 15.2756 34.7537H34.8789C35.9731 34.7591 36.8485 33.7576 36.8485 32.9038V10.9405H36.843ZM36.8376 7.53631C36.854 6.92333 36.8595 6.43623 36.8376 5.88345C36.7555 3.79276 35.1087 2.1399 33.0296 2.01402C32.4661 1.98118 31.9463 1.9976 31.3281 2.03044C31.629 2.67079 31.7931 3.23998 31.7986 3.89127V5.09534C31.8041 6.09143 32.5646 6.93975 33.5713 7.04373C34.7202 7.15867 35.4096 6.82481 36.8376 7.54178V7.53631ZM23.3784 36.8663C23.2362 36.7185 23.0447 36.7623 22.8423 36.7623L14.9911 36.7458C14.165 36.7458 13.4373 36.3627 12.7972 35.9085C11.878 35.1149 11.3418 34.0367 11.3418 32.7998V6.19541L3.54538 8.26969C3.14051 8.40652 2.77394 8.55976 2.52774 8.88814C2.10646 9.3643 1.90402 9.97728 2.0791 10.6231L9.56916 38.5903C9.80989 39.4878 10.8166 40.1993 11.7412 39.9585L23.3784 36.8663Z" fill="#1B76FF"/>
<path d="M33.4455 23.6817H16.7091C16.1401 23.6762 15.8446 22.9921 15.8829 22.5871C15.9322 22.0671 16.3206 21.6676 16.8951 21.6676H33.2759C33.8613 21.6676 34.2716 22.0398 34.3263 22.598C34.3646 23.0194 34.0473 23.6762 33.4564 23.6762L33.4455 23.6817Z" fill="#1B76FF"/>
<path d="M33.533 29.4613L16.824 29.4886C16.5121 29.4886 16.1674 29.2971 16.0142 29.0125C15.8446 28.7005 15.8337 28.3448 15.9923 28.0164C16.0963 27.8029 16.3753 27.491 16.7364 27.491H33.4345C33.9597 27.491 34.2825 27.9562 34.3208 28.4269C34.3537 28.7826 34.0746 29.4558 33.533 29.4558V29.4613Z" fill="#1B76FF"/>
<path d="M34.2278 17.3057C34.2059 17.3604 34.2497 17.4151 34.2333 17.437C34.2114 17.4698 34.1512 17.4644 34.1184 17.4972C33.905 17.7161 33.6752 17.8858 33.3306 17.8858H16.9936C16.4027 17.8913 15.965 17.5848 15.8884 17.0101C15.8282 16.5285 16.1565 15.8881 16.7583 15.8881L33.2758 15.8772C33.6588 15.8772 33.9543 16.0304 34.1403 16.2986C34.3427 16.5942 34.381 16.9499 34.2278 17.3057Z" fill="#1B76FF"/>
<path d="M22.8806 8.36267C22.6891 8.66916 22.2897 8.75126 21.9395 8.75126L16.9826 8.7622C16.3699 8.7622 15.8993 8.37909 15.8829 7.788C15.8665 7.19692 16.2768 6.73718 16.8951 6.73718H22.0763C22.4812 6.73718 22.7985 6.96705 22.9517 7.25165C23.1377 7.60739 23.1049 8.00692 22.8806 8.36814V8.36267Z" fill="#1B76FF"/>
</g>
<defs>
<clipPath id="clip0_53_351">
<rect width="38.8072" height="42" fill="white"/>
</clipPath>
</defs>
</svg>
