<svg preserveAspectRatio="none" width="100%" height="100%" overflow="visible" style="display: block;" viewBox="0 0 63.9938 63.9989" fill="none" xmlns="http://www.w3.org/2000/svg">
<g id="Group">
<path id="Vector" d="M62.8737 28.9376L58.8525 24.8576L60.3 19.2314C60.6637 16.5901 59.74 14.9376 57.2513 13.8964L51.6275 12.3614L50.1387 6.8876C49.175 4.4951 47.5913 3.3501 44.9613 3.64385L39.135 5.14635L35.0612 1.1226C33.5487 -0.401152 30.2425 -0.364902 28.7463 1.1776L24.745 5.1426L18.855 3.6376C16.3525 3.3526 14.7338 4.3776 13.8013 6.69635L12.2312 12.3639L6.20125 14.0589C3.87 15.1414 3.22125 17.0051 3.6075 19.4289C4.13125 21.2501 4.5925 23.0751 4.9925 24.9026L0.89625 29.0539C0.34125 29.6789 0.0875 30.3651 0 31.1876V32.9338C0.08875 33.7563 0.345 34.4413 0.8975 35.0663L4.99125 39.2239C4.5975 41.0176 4.14125 42.8076 3.6225 44.5951C3.17125 47.4314 3.9875 49.1439 6.69375 50.2289L12.235 51.7639L13.88 57.6639C14.87 59.9014 16.58 60.7864 18.975 60.4564L24.745 58.9739L28.2862 62.5189C29.0825 63.2989 29.9113 63.9326 31.0588 63.9989H32.68C33.7688 63.9301 34.6325 63.5001 35.385 62.7114L39.1237 58.9714L44.5638 60.3926C47.425 60.8176 49.075 59.9139 50.135 57.2039L51.6237 51.7601L56.8725 50.3401C59.5988 49.2851 60.7138 47.7464 60.2775 44.7889L58.8488 39.2501L62.8688 35.1801C64.3688 33.6963 64.3688 30.4214 62.8688 28.9376H62.8737ZM32.52 45.9664C24.9175 46.2889 18.4187 40.3976 18.0325 32.7813C17.645 25.1351 23.5 18.5139 31.3162 18.1576C39.07 17.8039 45.5112 23.8539 45.8387 31.4551C46.17 39.1239 40.1962 45.6401 32.5187 45.9664H32.52Z" fill="var(--fill-0, #1B76FF)"/>
<path id="Vector_2" d="M23.7337 33.3475C22.9362 32.5812 22.8888 31.4712 23.5375 30.7075C24.1675 29.9662 25.3775 29.7712 26.1413 30.4962L29.7938 33.9612L37.6175 26.1575C38.345 25.4325 39.5 25.52 40.1937 26.2025C40.8412 26.84 40.9962 28.0325 40.245 28.7862L31.165 37.885C30.4275 38.6237 29.28 38.67 28.5325 37.9525L23.735 33.3487L23.7337 33.3475Z" fill="var(--fill-0, #1B76FF)"/>
</g>
</svg>
