<svg width="39" height="48" viewBox="0 0 39 48" fill="none" xmlns="http://www.w3.org/2000/svg">
<path d="M34.537 0C34.5838 0.180985 34.8648 0.232695 34.9317 0.458927L38.7253 12.5914C38.8926 13.1279 38.7253 13.6191 38.1499 13.7872L32.4964 15.429C32.0079 15.5712 31.5463 15.3191 31.4058 14.8667C31.2519 14.5822 31.2787 14.272 31.0378 13.9423C29.8602 15.164 28.5355 16.0366 26.816 16.3921L26.8026 23.7931L30.2751 23.8254C30.6765 23.8125 30.9843 24.0129 31.1582 24.3555L33.8545 30.6641V47.2436C33.8479 47.6573 33.5133 47.9999 33.0651 47.9999H0.896543C0.374675 47.9999 0.100359 47.5991 0.100359 47.1467V31.039C0.100359 30.9162 0.0802875 30.8386 0 30.8386V30.7416L2.81675 24.349C2.97064 23.9935 3.27841 23.806 3.68653 23.806H7.08537C7.17904 23.5346 7.17904 23.3019 7.07868 23.011C5.70041 23.4764 4.26862 23.2372 3.15128 22.3452C2.79668 22.0608 2.64949 21.589 2.95725 21.1817L13.1471 7.82115C14.1841 6.4573 15.7029 5.6364 17.4625 5.55883L24.8557 5.22272C26.08 5.16454 26.9097 4.22084 27.7126 3.31591C27.8196 3.1931 27.7126 2.9604 27.6657 2.83759C27.4784 2.28817 27.7326 1.82278 28.2879 1.66119L33.5066 0.15513C33.6271 0.116348 33.7074 0.0646376 33.7609 0H34.537ZM36.9055 12.4427L33.6003 1.83571L29.4789 3.03797L32.7774 13.645L36.9055 12.4427ZM18.4059 11.318C18.9077 11.1371 19.3426 11.5378 19.4296 11.8804C19.5299 12.2682 19.356 12.6884 18.9278 12.8435L13.5418 14.802C14.3447 16.0237 15.8969 16.7088 17.2484 16.14L19.9983 14.9765C23.1964 13.6191 26.5417 17.116 30.5092 12.0161L28.3147 5.07405C27.3111 6.21167 26.1938 6.82573 24.7954 6.87098L17.5428 7.19417C16.3653 7.29112 15.2948 7.76298 14.5789 8.70022L4.83063 21.4661C5.64019 21.7635 6.46314 21.6536 7.03853 21.1624L12.6319 16.3921C12.1033 15.7651 10.8321 14.007 12.1368 13.5416L18.3858 11.318H18.4059ZM8.85838 27.0767L25.1166 27.0638V16.5795C24.4007 16.4891 23.7383 16.4632 23.0492 16.321C22.2129 16.224 21.3899 16.237 20.587 16.4955L17.9041 17.6461C16.673 18.1761 15.2814 17.9757 14.0503 17.394L8.82493 21.8669L8.86507 27.0767H8.85838ZM27.6791 27.0702C28.2612 27.0832 28.6158 27.4451 28.6024 27.9041C28.589 28.3307 28.2679 28.6991 27.7259 28.6991H6.22228C5.68703 28.6991 5.35919 28.3242 5.34581 27.9041C5.33243 27.4839 5.66027 27.1219 6.14199 27.0832C6.46314 27.0573 6.75084 27.1219 7.10544 27.0314C7.14558 26.495 7.15227 26.0231 7.10544 25.4672H4.1415L2.19452 30.1211H31.7604L29.8134 25.4737H26.8361C26.8093 26.0166 26.7424 26.5143 26.8695 27.0121C27.0502 27.1478 27.4382 27.0702 27.6858 27.0702H27.6791ZM32.1551 46.3775V31.75H1.7864V46.3775H32.1551Z" fill="#FF0004"/>
</svg>
