<svg preserveAspectRatio="none" width="100%" height="100%" overflow="visible" style="display: block;" viewBox="0 0 100.999 112.001" fill="none" xmlns="http://www.w3.org/2000/svg">
<g id="Group">
<path id="Vector" d="M82.8137 106.503C82.4142 107.32 81.1546 108.861 80.4087 109.477C78.5397 111.024 76.2407 111.983 73.7501 111.983L10.5841 112.001C4.63473 112.003 0 107.218 0 101.27L0.0163051 14.6042C0.0163051 8.91089 4.56543 4.07606 10.2865 4.07401L74.121 4.04936C74.4614 4.04936 74.6306 4.16438 74.9281 4.07606C79.8584 -0.651967 87.3648 -1.34823 93.0676 2.41447C98.6643 6.10734 101.153 13.1604 98.9109 19.667C96.781 25.8451 90.7482 30.0391 84.0549 29.5729L84.0834 41.091C84.7234 39.8567 85.1922 38.6223 85.6997 37.3612C86.3825 35.6647 87.9416 34.6295 89.8106 34.8411C90.1184 34.1448 90.3365 33.5061 90.74 32.9063C92.2666 30.6389 95.2321 29.959 97.578 31.2057C99.985 32.4853 101.035 35.4059 99.9748 37.9753C99.8342 38.3183 99.7017 38.6079 99.5631 39.0146C100.892 40.0949 101.371 41.8777 100.692 43.4961L84.0651 83.1503L84.059 101.496C84.059 103.309 83.6004 104.895 82.8116 106.503H82.8137ZM63.9568 90.9674C65.2388 92.7892 65.1899 95.0628 65.2327 97.3242C67.6642 95.8844 70.2282 93.4362 70.3871 90.6141C70.4116 90.1828 70.4585 89.7618 70.6215 89.3428L68.8483 80.2975C68.6873 79.4739 68.2186 79.1802 68.6058 78.2498L80.5962 49.4503L80.6736 28.9526C76.526 27.6607 73.2854 24.5738 71.6793 20.9938C69.6453 16.465 69.9591 11.7309 72.2174 7.50193L11.1425 7.44236C7.16406 7.43826 3.44242 10.1021 3.44242 14.403V101.682C3.44242 105.644 6.88687 108.569 10.6595 108.569H73.3669C77.2598 108.569 80.6329 105.636 80.6329 101.592V86.5454L73.8234 91.1728C73.4219 93.4115 72.5109 95.5619 70.805 97.1989C71.3736 97.318 71.7568 97.2153 72.2337 97.2564C73.1549 97.3365 73.8031 98.043 73.8214 98.9529C73.8357 99.7251 73.2426 100.678 72.2989 100.678L52.5453 100.695C51.4977 100.695 50.7884 99.7888 50.8536 98.8481C50.9188 97.889 51.7076 97.1886 52.7715 97.2502C52.6451 94.4282 53.9944 91.9204 56.3892 90.532C58.8166 89.1271 62.0654 88.2809 63.9568 90.9674ZM79.6362 16.1857L82.8381 19.4267C83.5658 20.1641 84.6113 19.9443 85.29 19.2624L90.6503 13.8751C91.4024 13.1193 91.6103 12.0636 90.8623 11.279C90.1551 10.5376 89.0728 10.5971 88.333 11.3468L83.9938 15.7359L81.9149 13.7375C81.2871 13.1357 80.2742 13.3452 79.732 13.9203C79.1899 14.4954 78.9901 15.5346 79.6362 16.1878V16.1857ZM97.4801 42.3316C97.6248 42.005 97.5902 41.7544 97.3415 41.6497L89.4682 38.3121C89.2399 38.2156 89.0341 38.3019 88.9342 38.5524L72.3601 78.1122L80.9692 81.7352L97.4781 42.3316H97.4801Z" fill="var(--fill-0, #1B76FF)"/>
<path id="Vector_2" d="M64.5418 32.7359H20.5098C17.9479 32.7338 15.9872 30.6224 15.9933 28.0818L16.0035 21.5648C16.0075 19.0057 18.0763 17.0586 20.6015 17.0607L64.662 17.0751C67.1057 17.0751 69.0787 19.1269 69.0807 21.5525L69.0868 28.1763C69.0868 30.6841 67.1057 32.7338 64.5418 32.7338V32.7359Z" fill="var(--fill-0, #1B76FF)"/>
<path id="Vector_3" d="M72.5374 43.3462H11.6337C10.6167 43.3462 9.90943 42.5863 9.88701 41.6518C9.86459 40.7172 10.5963 39.906 11.6337 39.906H72.3968C73.3771 39.906 74.1068 40.5817 74.172 41.4833C74.2372 42.385 73.6298 43.2538 72.5374 43.3462Z" fill="var(--fill-0, #1B76FF)"/>
<path id="Vector_4" d="M72.2439 50.5451C73.371 50.5451 74.1516 51.1941 74.1761 52.2498C74.1985 53.1925 73.4423 53.9894 72.3988 53.9894H11.6337C10.5963 53.9894 9.87479 53.1843 9.88701 52.2457C9.90128 51.2393 10.6921 50.5471 11.7315 50.5471H72.2439V50.5451Z" fill="var(--fill-0, #1B76FF)"/>
<path id="Vector_5" d="M59.8989 64.6223L11.6296 64.6306C10.6248 64.6306 9.9074 63.8686 9.88701 62.9505C9.86663 62.0324 10.5861 61.1944 11.6296 61.1944H59.85C60.8385 61.1965 61.5274 61.9667 61.5539 62.8622C61.5783 63.7104 60.9444 64.6223 59.8968 64.6223H59.8989Z" fill="var(--fill-0, #1B76FF)"/>
<path id="Vector_6" d="M59.9009 71.8581C60.9506 71.8581 61.5865 72.768 61.5559 73.6327C61.5253 74.5097 60.8222 75.2881 59.852 75.2881H11.542C10.5718 75.2861 9.92166 74.4851 9.88905 73.6409C9.8544 72.731 10.5209 71.8581 11.5338 71.8581H59.9009Z" fill="var(--fill-0, #1B76FF)"/>
<path id="Vector_7" d="M38.6737 85.9313L11.6255 85.9354C10.6248 85.9354 9.9074 85.1673 9.88701 84.2512C9.86663 83.3352 10.5902 82.4972 11.6255 82.4972L38.6248 82.4911C39.6357 82.4911 40.3735 83.214 40.4 84.165C40.4265 85.0851 39.758 85.9313 38.6737 85.9313Z" fill="var(--fill-0, #1B76FF)"/>
</g>
</svg>
