<svg preserveAspectRatio="none" width="100%" height="100%" overflow="visible" style="display: block;" viewBox="0 0 91.0002 112.006" fill="none" xmlns="http://www.w3.org/2000/svg">
<g id="Group">
<path id="Vector" d="M54.8368 111.999H36.1958C36.022 111.618 33.3192 111.844 31.718 111.688C22.6886 110.81 10.5872 109.993 2.20086 106.448C0.632231 105.784 0.362827 102.848 0 101.943V97.57L0.325892 93.7183C0.74738 88.7143 1.29922 83.8679 2.73532 79.037C3.95851 74.9224 5.44023 71.0006 8.02781 67.5697C9.56603 65.5277 11.9711 64.246 14.3154 63.3434C19.5514 61.3277 24.305 60.0548 29.0848 56.8319L31.2422 58.2692L31.0402 72.2407L43.7543 106.456C44.078 107.328 44.8645 107.696 45.6075 107.672C46.3506 107.648 47.0284 107.184 47.3522 106.312L60.0294 72.1596L59.8056 58.2977C60.5617 57.7171 61.2156 57.2526 61.9934 56.8451C66.7362 60.0679 71.5486 61.3518 76.7194 63.3412C79.0723 64.246 81.4687 65.5277 83.0178 67.574C85.575 70.9524 87.035 74.8194 88.256 78.8704C89.7421 83.8022 90.3156 88.769 90.6741 93.8936L90.8544 96.4898C91.0195 98.8692 91.5627 105.418 88.5515 106.601C84.6777 108.119 80.7844 108.954 76.6716 109.697C70.8642 110.746 65.1611 111.106 59.3124 111.71C57.7438 111.872 56.2338 111.559 54.839 112.006L54.8368 111.999Z" fill="var(--fill-0, #1B76FF)"/>
<path id="Vector_2" d="M65.4283 38.9562C63.7532 42.4179 62.0412 53.964 50.7892 58.6307C46.5396 60.3922 42.1661 60.0132 38.1924 57.6141C31.5464 53.6025 26.9947 46.688 25.6912 38.9453C24.82 37.7578 24.3203 36.5659 24.0139 35.1484C23.4534 32.5434 22.6234 29.1562 24.5897 27.1997C22.3801 18.7406 23.2187 12.8294 28.9175 6.26982C31.8614 2.88265 35.7265 0.849474 40.176 0.179052C45.5554 -0.63159 51.3737 1.44979 56.3142 3.62976C63.2101 6.67076 69.0783 13.4276 67.6096 20.8307L66.343 27.2107C68.3592 29.0094 67.3315 35.0279 66.7775 36.1759L65.4327 38.9562H65.4283Z" fill="var(--fill-0, #1B76FF)"/>
<path id="Vector_3" d="M46.0703 103.689C45.9964 104.149 45.7922 104.263 45.6162 104.29C45.3425 104.331 45.0687 104.189 45.0036 103.792L40.3737 75.4482L44.8297 70.9349L39.9392 63.247C43.6826 64.5067 47.3847 64.4191 51.2368 63.247L46.1941 70.9305L50.6676 75.3891L46.0681 103.689H46.0703Z" fill="var(--fill-0, #1B76FF)"/>
</g>
</svg>
