<svg preserveAspectRatio="none" width="100%" height="100%" overflow="visible" style="display: block;" viewBox="0 0 111.998 112" fill="none" xmlns="http://www.w3.org/2000/svg">
<g id="Group">
<path id="Vector" d="M109.747 112H0V48.3371C0.826301 47.4208 1.32603 46.1561 3.29425 46.1539L26.5469 46.1451L21.5123 37.3839C20.5611 35.7268 21.0411 33.7671 22.7332 32.7654L79.3775 0.497695C81.0016 -0.427309 82.9677 -0.0634447 83.9386 1.59367L103.61 35.1963C104.576 36.917 104.064 38.8415 102.409 39.8126L91.691 46.0947L108.723 46.1648C110.527 46.1714 111.998 47.5545 111.998 49.4681L111.976 109.122C111.976 110.621 110.628 111.244 109.745 112H109.747ZM55.6033 59.2596L96.309 35.7465L79.9211 7.75306L28.811 36.8688L41.7315 59.2727L55.6011 59.2574L55.6033 59.2596ZM88.8132 59.2859C90.7419 59.3165 92.1403 60.8443 92.0723 62.6702C92.011 64.3186 90.7112 65.8354 88.7737 65.8354H23.2241C21.2121 65.8354 19.886 64.2134 19.9255 62.4576C19.9649 60.7019 21.3392 59.2968 23.1803 59.2837L34.0734 59.2113L30.3649 52.7166L6.55781 52.71L6.56877 72.4047H105.436L105.449 52.7122L80.1008 52.7056L68.9425 59.2245L88.8153 59.2859H88.8132ZM105.438 105.437V78.963H6.56438V105.44H105.438V105.437Z" fill="var(--fill-0, #1B76FF)"/>
<path id="Vector_2" d="M53.749 38.6861C52.3748 37.3139 52.434 35.3127 53.6373 34.0413C54.8888 32.7218 56.9732 32.6757 58.3321 33.9909C59.246 34.8765 60 35.7554 61.1288 36.7067L66.0011 22.1873C66.5907 20.4271 68.3682 19.5394 70.0515 20.0391C71.7501 20.5433 72.8504 22.356 72.2345 24.2017L65.6943 43.8416C65.3195 44.966 64.4274 45.7047 63.5901 45.9568C62.3167 46.3426 61.1288 46.0467 60.2499 45.1699L53.7512 38.6839L53.749 38.6861Z" fill="var(--fill-0, #1B76FF)"/>
</g>
</svg>
